<?xml version="1.0" encoding="utf-8"?>
<!-- Generator: Adobe Illustrator 16.0.0, SVG Export Plug-In . SVG Version: 6.00 Build 0)  -->
<!DOCTYPE svg PUBLIC "-//W3C//DTD SVG 1.1//EN" "http://www.w3.org/Graphics/SVG/1.1/DTD/svg11.dtd">
<svg version="1.1" id="Layer_1" xmlns="http://www.w3.org/2000/svg" xmlns:xlink="http://www.w3.org/1999/xlink" x="0px" y="0px"
	 preserveAspectRatio="none" viewBox="0 0 50.657 15.946" enable-background="new 0 0 50.657 15.946" xml:space="preserve">
<g>
	<path fill="#9E9E9E" d="M14.87,15.946c-0.002,0-0.602,0-0.602,0H0.696c-0.402,0-0.28-0.26-0.492-0.604s-0.281-0.871-0.101-1.232
		L6.74,0.538c0.196-0.394,0.65-0.395,1.091-0.395c0.441,0,0.396-0.049,0.594,0.345l6.794,13.391c0.105,0.176,0.019,0.879,0.019,1.1
		C15.237,15.622,15.512,15.946,14.87,15.946z M2.48,13.963h10.403l-5.202-11L2.48,13.963z"/>
	<path fill="#9E9E9E" d="M31.521,15.946H18.797c-0.404,0-0.629-0.457-0.842-0.803c-0.212-0.344-0.132-0.869,0.047-1.23l6.139-13.521
		c0.233-0.466,1.04-0.483,1.562-0.223c0.574,0.285,0.609,0.735,0.323,1.31l-5.599,12.485h9.719l-2.764-5.65
		c-0.285-0.578-0.048-0.877,0.528-1.16c0.577-0.285,1.273,0.052,1.56,0.627l2.796,6.087c0.176,0.361,0.456,1.037,0.243,1.377
		C32.297,15.588,31.924,15.946,31.521,15.946z"/>

		<path fill="#9E9E9E" stroke="#161616" stroke-width="12" stroke-linecap="round" stroke-linejoin="round" stroke-miterlimit="10" d="
		M25.084,1.215"/>
	<path fill="#9E9E9E" d="M48.924,15.946c-0.427,0-0.341-0.19-0.544-0.647L42.784,3.07L36.99,15.697
		c-0.4,0.705-1.172,0.62-1.712,0.08c-0.447-0.447-0.459-0.986-0.171-1.561l6.835-13.872c0.197-0.395,0.551-0.296,0.991-0.296l0,0
		c0.441,0,0.596-0.049,0.743,0.346l6.682,13.873c0.337,0.572,0.159,1.242-0.416,1.529C49.775,15.879,49.098,15.946,48.924,15.946z"
		/>
</g>
</svg>
