<?xml version="1.0" encoding="utf-8"?>
<!-- Generator: Adobe Illustrator 16.0.0, SVG Export Plug-In . SVG Version: 6.00 Build 0)  -->
<!DOCTYPE svg PUBLIC "-//W3C//DTD SVG 1.1//EN" "http://www.w3.org/Graphics/SVG/1.1/DTD/svg11.dtd">
<svg version="1.1" id="Layer_1" xmlns="http://www.w3.org/2000/svg" xmlns:xlink="http://www.w3.org/1999/xlink" x="0px" y="0px"
	 viewBox="0 0 240.967 98.23" enable-background="new 0 0 240.967 98.23" xml:space="preserve">
<rect x="-40.001" y="-190.885" display="none" fill="#1C1C1C"/>
<g>
	<g>
		<g>
			<path fill="#EAEAEA" d="M69.49,74.115c-0.004,0-0.011,0-0.018,0H4.511c-1.563,0-3.016-0.877-3.837-2.205
				c-0.822-1.33-0.897-3.025-0.197-4.423l32.48-64.976c0.764-1.529,2.326-2.502,4.035-2.502c1.708,0,3.271,0.961,4.034,2.49
				l32.312,64.617c0.422,0.687,0.664,1.561,0.664,2.424C74.002,72.029,71.982,74.115,69.49,74.115z M36.904,14.753L11.81,65.115
				h50.189"/>
		</g>
		<g>
			<path fill="#EAEAEA" d="M152.48,74.115H87.518c-1.562,0-3.015-0.877-3.837-2.205c-0.822-1.33-0.896-3.025-0.197-4.423
				l32.481-64.976c1.113-2.23,3.823-3.141,6.052-2.026c2.229,1.114,3.132,3.897,2.018,6.126L94.817,65.115h50.363l-12.976-26.028
				c-1.114-2.229-0.212-4.978,2.017-6.092c2.229-1.115,4.938-0.229,6.053,1.999l16.24,32.47c0.699,1.397,0.625,3.12-0.197,4.45
				C155.495,73.243,154.043,74.115,152.48,74.115z"/>
		</g>
		<g>
			<path fill="#EAEAEA" d="M235.491,73.982c-1.655,0-3.248-0.913-4.038-2.494l-28.446-56.89l-28.447,56.89
				c-1.114,2.229-3.826,3.133-6.052,2.017c-2.229-1.113-3.132-3.823-2.018-6.051l32.481-64.959C199.735,0.965,201.298,0,203.007,0
				c1.708,0,3.271,0.965,4.034,2.494l32.481,64.959c1.114,2.228,0.211,4.938-2.018,6.051
				C236.857,73.829,236.169,73.982,235.491,73.982z"/>
		</g>
	</g>
	<g>
		<path fill="#EAEAEA" d="M5.625,92.042c0,0.94-0.012,1.714-0.034,2.32c-0.023,0.606-0.063,1.103-0.121,1.487
			c-0.057,0.386-0.144,0.691-0.258,0.918c-0.115,0.227-0.264,0.437-0.447,0.629c-0.207,0.216-0.462,0.386-0.767,0.511
			c-0.304,0.124-0.656,0.187-1.058,0.187H0.427V85.991H2.94c0.401,0,0.754,0.062,1.058,0.187c0.305,0.125,0.56,0.295,0.767,0.51
			c0.184,0.193,0.332,0.402,0.447,0.629c0.114,0.228,0.201,0.533,0.258,0.918c0.058,0.386,0.098,0.882,0.121,1.488
			C5.613,90.329,5.625,91.102,5.625,92.042z M4.609,92.042c0-0.861-0.006-1.567-0.017-2.117c-0.012-0.549-0.041-0.994-0.087-1.334
			S4.4,87.988,4.325,87.8c-0.074-0.187-0.181-0.348-0.318-0.484c-0.252-0.283-0.625-0.425-1.118-0.425H1.442v10.302h1.446
			c0.493,0,0.866-0.142,1.118-0.425c0.138-0.136,0.244-0.297,0.318-0.484c0.075-0.187,0.135-0.45,0.181-0.79
			c0.046-0.341,0.075-0.785,0.087-1.335C4.604,93.609,4.609,92.904,4.609,92.042z"/>
		<path fill="#EAEAEA" d="M12.785,98.094V85.991h1.016v12.104H12.785z"/>
		<path fill="#EAEAEA" d="M21.236,98.094V85.991h4.269v0.9h-3.253v4.692h2.806v0.9h-2.806v4.709h3.253v0.901H21.236z"/>
		<path fill="#EAEAEA" d="M36.607,98.094v-5.712h-3.029v5.712h-1.016V85.991h1.016v5.49h3.029v-5.49h1.016v12.104H36.607z"/>
		<path fill="#EAEAEA" d="M45.059,98.094V85.991h1.016v11.202h3.253v0.901H45.059z"/>
		<path fill="#EAEAEA" d="M69.328,95.51c0,0.453-0.069,0.85-0.207,1.19c-0.138,0.34-0.324,0.623-0.559,0.85
			c-0.235,0.227-0.506,0.396-0.81,0.51s-0.628,0.17-0.973,0.17c-0.401,0-0.754-0.062-1.059-0.187
			c-0.304-0.125-0.559-0.301-0.766-0.527c-0.184-0.192-0.333-0.408-0.447-0.646c-0.115-0.238-0.201-0.553-0.259-0.944
			c-0.058-0.391-0.098-0.895-0.12-1.513c-0.023-0.617-0.034-1.408-0.034-2.371c0-0.964,0.011-1.754,0.034-2.372
			c0.022-0.617,0.062-1.122,0.12-1.513s0.144-0.705,0.259-0.943c0.114-0.238,0.264-0.453,0.447-0.646
			c0.207-0.227,0.462-0.401,0.766-0.526c0.305-0.125,0.657-0.188,1.059-0.188c0.402,0,0.749,0.06,1.042,0.179
			c0.292,0.119,0.542,0.28,0.748,0.484c0.265,0.272,0.453,0.598,0.568,0.978c0.114,0.38,0.178,0.802,0.189,1.267h-1.016
			c0-0.238-0.023-0.479-0.068-0.723c-0.047-0.243-0.124-0.459-0.232-0.646c-0.109-0.188-0.265-0.34-0.465-0.459
			c-0.201-0.119-0.456-0.179-0.767-0.179c-0.459,0-0.82,0.147-1.084,0.441c-0.126,0.147-0.227,0.315-0.301,0.502
			c-0.075,0.187-0.136,0.456-0.182,0.808s-0.074,0.808-0.086,1.368c-0.012,0.562-0.017,1.284-0.017,2.168s0.005,1.606,0.017,2.167
			c0.012,0.562,0.04,1.018,0.086,1.369c0.046,0.351,0.106,0.62,0.182,0.807c0.074,0.188,0.175,0.354,0.301,0.502
			c0.264,0.295,0.625,0.442,1.084,0.442c0.448,0,0.815-0.159,1.102-0.477c0.287-0.317,0.431-0.765,0.431-1.343v-2.975H66.78v-0.851
			h2.548V95.51z"/>
		<path fill="#EAEAEA" d="M80.877,98.094l-1.772-5.423h-1.584v5.423h-1.016V85.991h2.41c0.367,0,0.711,0.042,1.032,0.127
			s0.603,0.249,0.844,0.493s0.431,0.584,0.568,1.02c0.138,0.437,0.206,1.006,0.206,1.709c0,0.94-0.126,1.651-0.379,2.134
			c-0.252,0.481-0.631,0.818-1.136,1.011l1.91,5.61H80.877z M80.55,89.339c0-0.782-0.111-1.386-0.336-1.811
			c-0.224-0.425-0.645-0.638-1.265-0.638h-1.429v4.879h1.429c0.62,0,1.041-0.209,1.265-0.629
			C80.438,90.722,80.55,90.122,80.55,89.339z"/>
		<path fill="#EAEAEA" d="M94.131,92.042c0,0.963-0.012,1.754-0.035,2.371c-0.022,0.618-0.062,1.122-0.12,1.513
			c-0.058,0.392-0.144,0.706-0.258,0.944c-0.115,0.237-0.265,0.453-0.448,0.646c-0.206,0.227-0.465,0.402-0.774,0.527
			c-0.31,0.124-0.665,0.187-1.067,0.187c-0.401,0-0.754-0.062-1.059-0.187c-0.304-0.125-0.559-0.301-0.766-0.527
			c-0.184-0.192-0.333-0.408-0.447-0.646c-0.115-0.238-0.201-0.553-0.259-0.944c-0.058-0.391-0.098-0.895-0.12-1.513
			c-0.023-0.617-0.034-1.408-0.034-2.371c0-0.964,0.011-1.754,0.034-2.372c0.022-0.617,0.062-1.122,0.12-1.513
			s0.144-0.705,0.259-0.943c0.114-0.238,0.264-0.453,0.447-0.646c0.207-0.227,0.462-0.401,0.766-0.526
			c0.305-0.125,0.657-0.188,1.059-0.188c0.402,0,0.758,0.062,1.067,0.188s0.568,0.3,0.774,0.526
			c0.184,0.193,0.333,0.408,0.448,0.646c0.114,0.238,0.2,0.553,0.258,0.943s0.098,0.896,0.12,1.513
			C94.119,90.289,94.131,91.079,94.131,92.042z M93.115,92.042c0-0.884-0.006-1.606-0.018-2.168
			c-0.012-0.561-0.04-1.017-0.086-1.368s-0.106-0.621-0.181-0.808c-0.075-0.187-0.175-0.354-0.302-0.502
			c-0.264-0.294-0.631-0.441-1.102-0.441c-0.459,0-0.82,0.147-1.084,0.441c-0.126,0.147-0.227,0.315-0.301,0.502
			c-0.075,0.187-0.136,0.456-0.182,0.808s-0.074,0.808-0.086,1.368c-0.012,0.562-0.017,1.284-0.017,2.168s0.005,1.606,0.017,2.167
			c0.012,0.562,0.04,1.018,0.086,1.369c0.046,0.351,0.106,0.62,0.182,0.807c0.074,0.188,0.175,0.354,0.301,0.502
			c0.264,0.295,0.625,0.442,1.084,0.442c0.241,0,0.453-0.04,0.638-0.119c0.183-0.079,0.338-0.188,0.464-0.323
			c0.127-0.147,0.227-0.314,0.302-0.502c0.074-0.187,0.135-0.456,0.181-0.807c0.046-0.352,0.074-0.808,0.086-1.369
			C93.109,93.649,93.115,92.926,93.115,92.042z"/>
		<path fill="#EAEAEA" d="M106.248,95.579c0,0.431-0.063,0.807-0.189,1.13c-0.127,0.323-0.305,0.599-0.534,0.825
			c-0.493,0.465-1.096,0.696-1.807,0.696c-0.712,0-1.314-0.231-1.808-0.696c-0.229-0.227-0.41-0.502-0.542-0.825
			s-0.198-0.699-0.198-1.13v-9.588h1.016v9.673c0,0.521,0.149,0.929,0.447,1.224c0.299,0.295,0.66,0.442,1.085,0.442
			c0.424,0,0.783-0.147,1.075-0.442c0.293-0.295,0.439-0.702,0.439-1.224v-9.673h1.016V95.579z"/>
		<path fill="#EAEAEA" d="M118.606,89.374c0,0.714-0.071,1.289-0.215,1.726s-0.336,0.776-0.577,1.02
			c-0.24,0.244-0.522,0.408-0.843,0.493c-0.321,0.085-0.66,0.127-1.016,0.127h-1.395v5.355h-1.016V85.991h2.41
			c0.355,0,0.694,0.042,1.016,0.127c0.32,0.085,0.603,0.252,0.843,0.502c0.241,0.249,0.434,0.592,0.577,1.028
			S118.606,88.66,118.606,89.374z M117.591,89.374c0-0.511-0.04-0.927-0.12-1.25c-0.081-0.323-0.195-0.575-0.345-0.756
			c-0.149-0.182-0.327-0.307-0.533-0.374c-0.207-0.068-0.437-0.103-0.688-0.103h-1.343v4.947h1.343c0.252,0,0.481-0.034,0.688-0.103
			c0.206-0.067,0.384-0.189,0.533-0.365s0.264-0.425,0.345-0.748C117.551,90.299,117.591,89.883,117.591,89.374z"/>
		<path fill="#EAEAEA" d="M138.229,98.094l-0.672-3.315h-2.857l-0.653,3.315h-1.102l2.736-12.104h0.946l2.686,12.104H138.229z
			 M136.128,87.792l-1.222,6.086h2.461L136.128,87.792z"/>
		<path fill="#EAEAEA" d="M150.019,98.094l-1.772-5.423h-1.584v5.423h-1.016V85.991h2.41c0.367,0,0.711,0.042,1.032,0.127
			s0.603,0.249,0.844,0.493s0.431,0.584,0.568,1.02c0.138,0.437,0.206,1.006,0.206,1.709c0,0.94-0.126,1.651-0.379,2.134
			c-0.252,0.481-0.631,0.818-1.136,1.011l1.91,5.61H150.019z M149.691,89.339c0-0.782-0.111-1.386-0.336-1.811
			c-0.224-0.425-0.645-0.638-1.265-0.638h-1.429v4.879h1.429c0.62,0,1.041-0.209,1.265-0.629
			C149.58,90.722,149.691,90.122,149.691,89.339z"/>
		<path fill="#EAEAEA" d="M163.117,95.323c-0.012,0.477-0.086,0.919-0.224,1.326c-0.138,0.408-0.351,0.743-0.637,1.003
			c-0.425,0.386-0.987,0.578-1.688,0.578c-0.401,0-0.754-0.062-1.059-0.187c-0.304-0.125-0.559-0.301-0.766-0.527
			c-0.184-0.192-0.333-0.408-0.447-0.646c-0.115-0.238-0.201-0.553-0.259-0.944c-0.058-0.391-0.098-0.895-0.12-1.513
			c-0.023-0.617-0.034-1.408-0.034-2.371c0-0.964,0.011-1.754,0.034-2.372c0.022-0.617,0.062-1.122,0.12-1.513
			s0.144-0.705,0.259-0.943c0.114-0.238,0.264-0.453,0.447-0.646c0.207-0.227,0.462-0.401,0.766-0.526
			c0.305-0.125,0.657-0.188,1.059-0.188c0.402,0,0.743,0.057,1.024,0.17s0.525,0.272,0.731,0.477
			c0.264,0.261,0.459,0.586,0.585,0.978c0.127,0.391,0.195,0.818,0.207,1.283h-1.016c0-0.306-0.034-0.601-0.104-0.884
			c-0.068-0.283-0.195-0.521-0.378-0.714c-0.127-0.125-0.273-0.224-0.439-0.298c-0.166-0.073-0.37-0.11-0.611-0.11
			c-0.459,0-0.82,0.147-1.084,0.441c-0.126,0.147-0.227,0.315-0.301,0.502c-0.075,0.187-0.136,0.456-0.182,0.808
			s-0.074,0.808-0.086,1.368c-0.012,0.562-0.017,1.284-0.017,2.168s0.005,1.606,0.017,2.167c0.012,0.562,0.04,1.018,0.086,1.369
			c0.046,0.351,0.106,0.62,0.182,0.807c0.074,0.188,0.175,0.354,0.301,0.502c0.264,0.295,0.625,0.442,1.084,0.442
			c0.241,0,0.448-0.037,0.62-0.111c0.172-0.073,0.315-0.172,0.431-0.297c0.183-0.192,0.31-0.434,0.378-0.723
			c0.069-0.289,0.104-0.581,0.104-0.876H163.117z"/>
		<path fill="#EAEAEA" d="M174.115,98.094v-5.712h-3.029v5.712h-1.016V85.991h1.016v5.49h3.029v-5.49h1.016v12.104H174.115z"/>
		<path fill="#EAEAEA" d="M182.566,98.094V85.991h1.016v12.104H182.566z"/>
		<path fill="#EAEAEA" d="M193.272,86.891v11.203h-1.016V86.891h-2.048v-0.9h5.112v0.9H193.272z"/>
		<path fill="#EAEAEA" d="M201.947,98.094V85.991h4.269v0.9h-3.253v4.692h2.806v0.9h-2.806v4.709h3.253v0.901H201.947z"/>
		<path fill="#EAEAEA" d="M218.248,95.323c-0.012,0.477-0.086,0.919-0.224,1.326c-0.138,0.408-0.351,0.743-0.637,1.003
			c-0.425,0.386-0.987,0.578-1.688,0.578c-0.401,0-0.754-0.062-1.059-0.187c-0.304-0.125-0.559-0.301-0.766-0.527
			c-0.184-0.192-0.333-0.408-0.447-0.646c-0.115-0.238-0.201-0.553-0.259-0.944c-0.058-0.391-0.098-0.895-0.12-1.513
			c-0.023-0.617-0.034-1.408-0.034-2.371c0-0.964,0.011-1.754,0.034-2.372c0.022-0.617,0.062-1.122,0.12-1.513
			s0.144-0.705,0.259-0.943c0.114-0.238,0.264-0.453,0.447-0.646c0.207-0.227,0.462-0.401,0.766-0.526
			c0.305-0.125,0.657-0.188,1.059-0.188c0.402,0,0.743,0.057,1.024,0.17s0.525,0.272,0.731,0.477
			c0.264,0.261,0.459,0.586,0.585,0.978c0.127,0.391,0.195,0.818,0.207,1.283h-1.016c0-0.306-0.034-0.601-0.104-0.884
			c-0.068-0.283-0.195-0.521-0.378-0.714c-0.127-0.125-0.273-0.224-0.439-0.298c-0.166-0.073-0.37-0.11-0.611-0.11
			c-0.459,0-0.82,0.147-1.084,0.441c-0.126,0.147-0.227,0.315-0.301,0.502c-0.075,0.187-0.136,0.456-0.182,0.808
			s-0.074,0.808-0.086,1.368c-0.012,0.562-0.017,1.284-0.017,2.168s0.005,1.606,0.017,2.167c0.012,0.562,0.04,1.018,0.086,1.369
			c0.046,0.351,0.106,0.62,0.182,0.807c0.074,0.188,0.175,0.354,0.301,0.502c0.264,0.295,0.625,0.442,1.084,0.442
			c0.241,0,0.448-0.037,0.62-0.111c0.172-0.073,0.315-0.172,0.431-0.297c0.183-0.192,0.31-0.434,0.378-0.723
			c0.069-0.289,0.104-0.581,0.104-0.876H218.248z"/>
		<path fill="#EAEAEA" d="M227.456,86.891v11.203h-1.016V86.891h-2.048v-0.9h5.112v0.9H227.456z"/>
		<path fill="#EAEAEA" d="M240.967,94.932c0,0.646-0.058,1.176-0.172,1.59c-0.115,0.414-0.311,0.756-0.586,1.028
			c-0.206,0.204-0.467,0.362-0.783,0.476c-0.315,0.113-0.691,0.17-1.127,0.17c-0.85,0-1.492-0.215-1.928-0.646
			c-0.138-0.136-0.253-0.28-0.345-0.434s-0.166-0.325-0.224-0.519c-0.058-0.192-0.098-0.413-0.12-0.663
			c-0.023-0.249-0.034-0.538-0.034-0.867h1.016c0,0.477,0.031,0.851,0.095,1.122c0.062,0.272,0.191,0.505,0.387,0.697
			c0.275,0.272,0.66,0.408,1.153,0.408c0.287,0,0.522-0.037,0.706-0.11c0.183-0.074,0.338-0.173,0.465-0.298
			c0.194-0.215,0.323-0.47,0.387-0.765s0.095-0.681,0.095-1.156c0-0.374-0.018-0.694-0.052-0.961
			c-0.034-0.266-0.101-0.495-0.198-0.688c-0.097-0.192-0.229-0.354-0.396-0.484c-0.166-0.13-0.382-0.246-0.646-0.349l-1.308-0.526
			c-0.311-0.125-0.571-0.27-0.783-0.434c-0.213-0.164-0.379-0.362-0.5-0.595c-0.12-0.232-0.206-0.511-0.258-0.833
			c-0.052-0.323-0.077-0.712-0.077-1.165c0-0.521,0.068-0.986,0.206-1.394c0.138-0.408,0.351-0.742,0.637-1.003
			c0.459-0.431,1.056-0.646,1.79-0.646c0.78,0,1.395,0.221,1.842,0.663c0.299,0.295,0.497,0.626,0.595,0.994
			c0.097,0.369,0.146,0.819,0.146,1.352h-1.016c0-0.385-0.031-0.708-0.095-0.969c-0.062-0.261-0.187-0.493-0.369-0.697
			c-0.127-0.136-0.279-0.243-0.457-0.322c-0.178-0.08-0.398-0.119-0.662-0.119c-0.241,0-0.447,0.033-0.62,0.102
			c-0.172,0.068-0.321,0.164-0.447,0.289c-0.195,0.193-0.333,0.437-0.413,0.731s-0.12,0.629-0.12,1.003
			c0,0.352,0.017,0.643,0.052,0.875c0.034,0.232,0.097,0.434,0.188,0.604s0.227,0.314,0.405,0.434
			c0.178,0.119,0.404,0.235,0.68,0.349l1.308,0.527c0.333,0.136,0.603,0.297,0.81,0.484c0.206,0.187,0.367,0.411,0.481,0.671
			c0.115,0.261,0.192,0.562,0.232,0.901S240.967,94.491,240.967,94.932z"/>
	</g>
</g>
</svg>
